<svg xmlns="http://www.w3.org/2000/svg" viewBox="0 0 500 500"><g id="freepik--background-simple--inject-7"><path d="M383.16,127.24a210,210,0,0,0-10.85-19C326.19,37.94,202.7-.34,141.51,72.34,126.92,89.66,121.84,110.6,112,130.46c-22.32,45.19-64,72.2-90.2,114-20.27,32.44-17.57,74-6.26,109.07,12.29,38.1,33.92,64.71,68.52,84.93,38.79,22.68,80.27,16.38,122.2,8.49,18.85-3.55,38.29-7.17,57.57-5.81,24.14,1.69,48,8.52,71.92,11.84,24.9,3.46,50.74,4.27,74.73-3.25,76.83-24.1,95-137,63.44-201.73-11.18-22.9-30.14-40.57-47.74-58.5C407.2,170.2,395.56,151.26,383.16,127.24Z" style="fill:#407BFF"></path><path d="M383.16,127.24a210,210,0,0,0-10.85-19C326.19,37.94,202.7-.34,141.51,72.34,126.92,89.66,121.84,110.6,112,130.46c-22.32,45.19-64,72.2-90.2,114-20.27,32.44-17.57,74-6.26,109.07,12.29,38.1,33.92,64.71,68.52,84.93,38.79,22.68,80.27,16.38,122.2,8.49,18.85-3.55,38.29-7.17,57.57-5.81,24.14,1.69,48,8.52,71.92,11.84,24.9,3.46,50.74,4.27,74.73-3.25,76.83-24.1,95-137,63.44-201.73-11.18-22.9-30.14-40.57-47.74-58.5C407.2,170.2,395.56,151.26,383.16,127.24Z" style="fill:#fff;opacity:0.7000000000000001"></path></g><g id="freepik--Floor--inject-7"><path d="M485.76,448.66H11.57a.5.5,0,0,1-.5-.5.5.5,0,0,1,.5-.5H485.76a.51.51,0,0,1,.5.5A.5.5,0,0,1,485.76,448.66Z" style="fill:#263238"></path></g><g id="freepik--Plant--inject-7"><path d="M241.62,160.05S231.06,174.4,221.39,187s-18.47,20.62-28.15,23.31c-7.78,2.16-27,3.75-34.14,4.28l-13.36,75.6H137l19.35-75.51c0-1.57.47-21,11.43-32.16,11.44-11.66,48.38-9,53.66-11.66S241.62,160.05,241.62,160.05Zm-98.43,8.45c-6.64,18.3-20.74,110.24-22.08,122.53l-9.67-1.79V178.88S108.8,161,100,154.67s-13.19-6.27-13.19-6.27a89.78,89.78,0,0,0-29.9,8.06,69,69,0,0,0-21.44,15.87c13.4.86,33.71,2,41.67,10.14,11,11.17,11.41,30.59,11.43,32.16l19.35,75.51H99.13l-13.36-75.6c-7.19-.53-26.36-2.12-34.14-4.28-9.24-2.57-17.67-10-26.83-21.63-4.25,8.83-7.48,18-7.48,18A103,103,0,0,1,21.2,184c-9-11.74-17.95-23.93-17.95-23.93s15,8.07,20.23,10.76a8.41,8.41,0,0,0,2.24.62,71.69,71.69,0,0,1,11-17.65c18.48-21.52,38.71-24.21,51.9-19.73s20.23,12.55,21.11,15.24S115,169.91,115,169.91s-4.4-32.27-7-50.2.88-39.45,6.16-58.28S135.19,6.74,135.19,6.74,150.14,48.88,153.66,83c2,19.66.25,36-3,48.09,8.78-14.68,23.39-27.33,39-35.54,29-15.24,47.5-9,47.5-9S219.63,89.22,210,98.19s-27.26,35-34.3,52S140.86,172,140.86,172C140.55,170.91,143.42,169.57,143.19,168.5Zm-.58-3.54a46.6,46.6,0,0,1,.9-16.57c-.43.66-.86,1.26-1.28,1.8-7,9-22.87,30.48-22.87,35.86,0,2.85.49,17.51,1,30.68l1.68-.2s7.92-27.79,13.2-38.55A127.15,127.15,0,0,1,142.61,165Z" style="fill:#263238"></path><polygon points="172.13 371.95 116.72 369.32 61.3 371.95 38.43 454.64 48.11 454.64 75.38 411.54 116.72 411.54 158.06 411.54 185.32 454.64 195 454.64 172.13 371.95" style="fill:#fff"></polygon><path d="M195,455.14h-9.68a.49.49,0,0,1-.42-.24L157.78,412H75.65L48.53,454.9a.49.49,0,0,1-.42.24H38.43a.51.51,0,0,1-.48-.64l22.87-82.68a.49.49,0,0,1,.46-.36l55.41-2.64,55.46,2.64a.48.48,0,0,1,.46.36l22.87,82.68a.53.53,0,0,1-.08.44A.52.52,0,0,1,195,455.14Zm-9.4-1h8.74l-22.59-81.7-55.06-2.63-55,2.63-22.6,81.7h8.74L75,411.27a.51.51,0,0,1,.43-.23h82.68a.48.48,0,0,1,.42.23Z" style="fill:#263238"></path><path d="M61.3,287.51H171.25a0,0,0,0,1,0,0v106a5.7,5.7,0,0,1-5.7,5.7H67a5.7,5.7,0,0,1-5.7-5.7v-106A0,0,0,0,1,61.3,287.51Z" style="fill:#fff"></path><path d="M165.55,399.72H67a6.21,6.21,0,0,1-6.2-6.2v-106a.51.51,0,0,1,.5-.5h110a.5.5,0,0,1,.5.5v106A6.21,6.21,0,0,1,165.55,399.72ZM61.8,288V393.52a5.2,5.2,0,0,0,5.2,5.2h98.55a5.2,5.2,0,0,0,5.2-5.2V288Z" style="fill:#263238"></path><rect x="111.88" y="371.95" width="8.8" height="82.68" style="fill:#fff"></rect><path d="M120.68,455.14h-8.8a.5.5,0,0,1-.5-.5V372a.5.5,0,0,1,.5-.5h8.8a.5.5,0,0,1,.5.5v82.68A.51.51,0,0,1,120.68,455.14Zm-8.3-1h7.8V372.46h-7.8Z" style="fill:#263238"></path></g><g id="freepik--Window--inject-7"><path d="M337.72,119.36H225.59a.5.5,0,0,1-.5-.5V24.64a.51.51,0,0,1,.5-.5.5.5,0,0,1,.5.5v93.72H337.22V24.64a.5.5,0,1,1,1,0v94.22A.5.5,0,0,1,337.72,119.36Z" style="fill:#263238"></path><path d="M458.55,119.36H346.43a.5.5,0,0,1-.5-.5V24.64a.5.5,0,0,1,.5-.5.51.51,0,0,1,.5.5v93.72H458.05V24.64a.51.51,0,0,1,.5-.5.5.5,0,0,1,.5.5v94.22A.5.5,0,0,1,458.55,119.36Z" style="fill:#263238"></path><path d="M337.72,222.93H225.59a.5.5,0,0,1-.5-.5V128.21a.51.51,0,0,1,.5-.5H337.72a.5.5,0,0,1,.5.5v94.22A.5.5,0,0,1,337.72,222.93Zm-111.63-1H337.22V128.71H226.09Z" style="fill:#263238"></path><path d="M458.55,222.93H346.43a.5.5,0,0,1-.5-.5V128.21a.5.5,0,0,1,.5-.5H458.55a.5.5,0,0,1,.5.5v94.22A.5.5,0,0,1,458.55,222.93Zm-111.62-1H458.05V128.71H346.93Z" style="fill:#263238"></path><path d="M337.72,326.5H225.59a.5.5,0,0,1-.5-.5V231.78a.51.51,0,0,1,.5-.5H337.72a.5.5,0,0,1,.5.5V326A.5.5,0,0,1,337.72,326.5Zm-111.63-1H337.22V232.28H226.09Z" style="fill:#263238"></path><path d="M458.55,326.5H346.43a.5.5,0,0,1-.5-.5V231.78a.5.5,0,0,1,.5-.5H458.55a.5.5,0,0,1,.5.5V326A.5.5,0,0,1,458.55,326.5Zm-111.62-1H458.05V232.28H346.93Z" style="fill:#263238"></path><path d="M387.06,202.44a.5.5,0,0,1-.35-.15.51.51,0,0,1,0-.71l57.9-57.9a.5.5,0,1,1,.71.71l-57.9,57.9A.51.51,0,0,1,387.06,202.44Z" style="fill:#263238"></path><path d="M382.39,198.48a.47.47,0,0,1-.35-.15.48.48,0,0,1,0-.7l16.54-16.55a.5.5,0,0,1,.71.71l-16.55,16.54A.49.49,0,0,1,382.39,198.48Z" style="fill:#263238"></path><path d="M286.73,162.52a.47.47,0,0,1-.35-.15.5.5,0,0,1,0-.71l18.7-18.7a.5.5,0,0,1,.7,0,.5.5,0,0,1,0,.71l-18.7,18.7A.47.47,0,0,1,286.73,162.52Z" style="fill:#263238"></path><path d="M311.18,139.5a.54.54,0,0,1-.35-.14.51.51,0,0,1,0-.71l4.68-4.68a.5.5,0,0,1,.7,0,.5.5,0,0,1,0,.71l-4.67,4.68A.54.54,0,0,1,311.18,139.5Z" style="fill:#263238"></path><path d="M399.65,289.82a.52.52,0,0,1-.35-.14.5.5,0,0,1,0-.71l25.89-25.89a.5.5,0,0,1,.71,0,.5.5,0,0,1,0,.7L400,289.68A.54.54,0,0,1,399.65,289.82Z" style="fill:#263238"></path><path d="M384.19,305.29a.51.51,0,0,1-.36-.15.51.51,0,0,1,0-.71l9.35-9.35a.51.51,0,0,1,.71,0,.5.5,0,0,1,0,.71l-9.35,9.35A.49.49,0,0,1,384.19,305.29Z" style="fill:#263238"></path><path d="M377.35,281.91a.5.5,0,0,1-.35-.85l9.35-9.35a.5.5,0,0,1,.71,0,.51.51,0,0,1,0,.71l-9.35,9.34A.51.51,0,0,1,377.35,281.91Z" style="fill:#263238"></path><path d="M399.65,81.24a.52.52,0,0,1-.35-.14.5.5,0,0,1,0-.71L425.19,54.5a.5.5,0,0,1,.71,0,.5.5,0,0,1,0,.7L400,81.1A.54.54,0,0,1,399.65,81.24Z" style="fill:#263238"></path><path d="M384.19,96.71a.51.51,0,0,1-.36-.15.51.51,0,0,1,0-.71l9.35-9.35a.51.51,0,0,1,.71,0,.5.5,0,0,1,0,.71l-9.35,9.35A.49.49,0,0,1,384.19,96.71Z" style="fill:#263238"></path><path d="M377.35,73.33a.54.54,0,0,1-.35-.14.51.51,0,0,1,0-.71l9.35-9.35a.5.5,0,0,1,.71,0,.5.5,0,0,1,0,.7l-9.35,9.36A.54.54,0,0,1,377.35,73.33Z" style="fill:#263238"></path></g><g id="freepik--Cat--inject-7"><path d="M284.68,421.89s3.26,23.62.75,31.39-9.09,9.55-7.61,15.15,10.33,4.53,16.26,2.74,11.38-9.48,10.66-18.66-4.89-24-8.09-26.36S286.37,420,284.68,421.89Z" style="fill:#263238"></path><path d="M297.72,469.27c-.1-.32-.18-.62-.29-.95-2.38-7.39-9.29-10.22-13.72-11.29-2.94,4.81-7.09,6.83-5.89,11.4,1.48,5.59,10.33,4.53,16.26,2.74A12,12,0,0,0,297.72,469.27Z" style="fill:#fff"></path><path d="M285.4,473.1A11.08,11.08,0,0,1,280,472a5.32,5.32,0,0,1-2.67-3.41c-.89-3.34.91-5.44,3-7.88a31,31,0,0,0,3-3.9.5.5,0,0,1,.54-.23c4.19,1,11.59,3.87,14.09,11.63.06.21.13.41.19.61l.1.34a.51.51,0,0,1-.18.55,12.45,12.45,0,0,1-3.79,2A33.18,33.18,0,0,1,285.4,473.1Zm-1.46-15.5a32.77,32.77,0,0,1-2.86,3.72c-2.05,2.41-3.53,4.14-2.78,7a4.35,4.35,0,0,0,2.19,2.79c4,2.21,11.29.25,13.45-.4a11.06,11.06,0,0,0,3.2-1.61h0c-.06-.19-.12-.39-.19-.6C294.67,461.39,288,458.63,283.94,457.6Z" style="fill:#263238"></path><path d="M311.37,292.69l-25.82-.53s-16.82-16.72-18.87-12.34c-4.26,9.09,2.26,26.3,2.26,26.3s-7.68,17-7.86,44.83,11.22,57,18.51,68.21a244.61,244.61,0,0,0,16.6,22.09s2.15,9.27.35,16.23S290.66,467.33,292,471s11.69,4.53,16.21.45,8.19-13.79,8.19-13.79l2.2.27s-2.39,6.74,3.34,9.5,19.79,1,25.21.71,63.07.36,82.48.91,41.52-2.44,48.08-15.08,4.26-30.72-2-35.3-13.45,1.23-13.25,8.64-.2,21.42-6.3,24.46-37.67.94-48-1.95-14.24-6.6-14.24-6.6,5.88-38.29,3-55.39-15.66-34.28-27.74-39.23-27.36-9.78-35.49-19.82-6.38-22.6-6.38-22.6c1.88-2.55,5.71-9.54,4.64-22.5-.37-4.5-1.06-5-1.86-5.06S319.63,283.38,311.37,292.69Z" style="fill:#407BFF"></path><path d="M299.69,474.6a15.88,15.88,0,0,1-3.84-.44c-2.33-.59-3.88-1.66-4.36-3-.81-2.27.25-4.23,1.59-6.71a30.12,30.12,0,0,0,3-7.08c1.63-6.34-.09-14.78-.33-15.87a249.09,249.09,0,0,1-16.56-22.05c-7.82-12-18.77-41.24-18.59-68.48.17-26.06,7-42.88,7.82-44.85-.74-2-6.28-17.73-2.18-26.49a1.73,1.73,0,0,1,1.29-1c4.13-.71,16.27,11.09,18.25,13.05l25.39.51c8.3-9.27,17.8-14.09,18.84-14.09h0c1.42,0,2,1.43,2.35,5.52,1.08,13.12-2.83,20.2-4.65,22.73-.15,1.3-1.19,12.87,6.28,22.1,6.86,8.47,19.06,13.26,29.82,17.49,1.87.74,3.7,1.46,5.47,2.18,12.61,5.16,25.19,22.93,28,39.6,2.78,16.23-2.39,51.79-2.91,55.28.89.74,5,3.85,13.83,6.32,10.1,2.83,41.53,5,47.65,2,5.7-2.84,6.22-16.25,6-24a10.87,10.87,0,0,1,5.41-9.86,8,8,0,0,1,8.64.8c6.59,4.81,8.83,23.1,2.16,35.93-7.44,14.33-33.61,15.76-48.54,15.35-19-.54-76.78-1.17-82.44-.91-1,0-2.3.14-3.79.26-6.72.51-16.88,1.29-21.66-1-5-2.43-4.21-7.74-3.76-9.53l-1.23-.14c-.73,1.84-4.08,9.9-8.19,13.61C306.32,473.76,302.86,474.6,299.69,474.6ZM268,279.58a1.27,1.27,0,0,0-.28,0,.7.7,0,0,0-.56.42c-4.12,8.8,2.22,25.74,2.28,25.91a.5.5,0,0,1,0,.38c-.08.17-7.65,17.25-7.82,44.64-.18,27,10.67,56,18.43,67.92a242.7,242.7,0,0,0,16.56,22,.51.51,0,0,1,.11.22c.09.38,2.15,9.47.35,16.46a31,31,0,0,1-3.07,7.3c-1.27,2.36-2.19,4.06-1.53,5.9.36,1,1.7,1.89,3.67,2.39,3.54.89,8.86.45,11.73-2.14,4.38-3.95,8-13.5,8.06-13.59a.49.49,0,0,1,.53-.32l2.2.26a.49.49,0,0,1,.36.23.5.5,0,0,1,0,.43c-.09.26-2.17,6.36,3.08,8.89,4.55,2.19,14.54,1.43,21.15.92,1.5-.11,2.81-.21,3.83-.26,5.66-.26,63.5.38,82.51.91,14.71.41,40.43-1,47.62-14.81,6.35-12.21,4.3-30.17-1.86-34.66a6.92,6.92,0,0,0-7.59-.72,9.84,9.84,0,0,0-4.87,8.94c.25,9.75-.69,22-6.57,24.91-6.27,3.12-38.15.95-48.37-1.91s-14.28-6.57-14.44-6.72a.49.49,0,0,1-.15-.44c.06-.38,5.83-38.4,2.95-55.23-2.8-16.37-15.1-33.8-27.43-38.84-1.76-.73-3.59-1.44-5.46-2.18-10.87-4.27-23.2-9.11-30.23-17.79-8.17-10.09-6.5-22.86-6.48-23a.5.5,0,0,1,.09-.23c1.72-2.34,5.61-9.19,4.54-22.16-.37-4.57-1.08-4.59-1.37-4.6-.89.12-10.13,4.8-18.23,13.93a.52.52,0,0,1-.39.17l-25.82-.53a.49.49,0,0,1-.34-.14C281.51,288.84,271.42,279.58,268,279.58Z" style="fill:#263238"></path><path d="M337.25,458.83a.51.51,0,0,1-.5-.49.5.5,0,0,1,.49-.51l35.84-.78a.48.48,0,0,1,.51.49.5.5,0,0,1-.49.51l-35.84.78Z" style="fill:#263238"></path><path d="M282.5,293.88s-7.4-7.42-10.53-10.11-4.08-4.32-4.73-2.53-.66,9.19.58,15,2.53,9.49,5.54,9.37,7.49-3,9-6.56S282.5,293.88,282.5,293.88Z" style="opacity:0.33"></path><path d="M314.52,294.78s7.8-7,11.08-9.5,4.32-4.09,4.87-2.27.14,9.21-1.42,15-3.07,9.32-6.07,9-7.31-3.41-8.61-7S314.52,294.78,314.52,294.78Z" style="opacity:0.33"></path><path d="M331,330.39c-.77-7.21-5.63,2.78-12.77.95s-14.18-22.68-15.42-25-5.71-6.86-9.45-1.74S280.77,328,274.2,329.12c-4.4.76-7.65-2.86-9.32-5.33a143.89,143.89,0,0,0-2.47,25.9c-.18,27.83,11.22,57,18.52,68.21A244.15,244.15,0,0,0,297.53,440s0-5.64.45-15.11c.72-13.7,8.06-30.81,17.61-45.25S331.8,337.6,331,330.39Z" style="fill:#fff"></path><path d="M312.05,466.45c-4.12-5.38-12.13-6.84-16-7.23-1.95,5.72-5.24,8.43-4.05,11.75,1.3,3.64,11.69,4.53,16.21.45A23.29,23.29,0,0,0,312.05,466.45Z" style="fill:#fff"></path><path d="M299.68,474.6a15.86,15.86,0,0,1-3.83-.44c-2.33-.59-3.88-1.66-4.36-3-.81-2.27.25-4.23,1.59-6.72a34.46,34.46,0,0,0,2.46-5.36.49.49,0,0,1,.52-.34c4.33.43,12.22,2,16.39,7.42a.53.53,0,0,1,0,.57,23,23,0,0,1-4,5.08C306.32,473.76,302.86,474.6,299.68,474.6Zm-3.33-14.84a36.14,36.14,0,0,1-2.39,5.13c-1.27,2.36-2.19,4.07-1.53,5.91.36,1,1.7,1.89,3.67,2.39,3.54.89,8.86.45,11.73-2.14a21.31,21.31,0,0,0,3.61-4.57C307.44,461.56,299.86,460.15,296.35,459.76Z" style="fill:#263238"></path><path d="M316.36,458.13a.5.5,0,0,1-.26-.92,33.46,33.46,0,0,0,12-15.64c2.65-7.28,2.09-21.42,1.52-29.2a.5.5,0,0,1,.47-.54.52.52,0,0,1,.53.46c.58,7.87,1.13,22.17-1.58,29.63a33.87,33.87,0,0,1-12.41,16.14A.52.52,0,0,1,316.36,458.13Z" style="fill:#263238"></path><path d="M329.89,410a.5.5,0,0,1-.49-.46c-.19-2.07-.33-3.34-.33-3.34a.49.49,0,0,1,.44-.55.5.5,0,0,1,.55.44s.15,1.27.33,3.36a.5.5,0,0,1-.45.55Z" style="fill:#263238"></path><path d="M318.56,457.9s-2.39,6.74,3.34,9.5c3.27,1.58,9.28,1.67,14.83,1.4a6.29,6.29,0,0,0,1.28-2.61,15.3,15.3,0,0,0-.76-7.86Z" style="fill:#fff"></path><path d="M332.27,469.42c-5,0-8.41-.51-10.59-1.57-6.07-2.92-3.62-10.05-3.59-10.12a.51.51,0,0,1,.48-.33l18.69.43a.48.48,0,0,1,.45.3,15.63,15.63,0,0,1,.79,8.15,6.55,6.55,0,0,1-1.37,2.82.51.51,0,0,1-.37.2C335.14,469.38,333.64,469.42,332.27,469.42Zm-13.35-11c-.38,1.35-1.41,6.32,3.19,8.54,2.57,1.24,7.27,1.69,14.36,1.36a5.66,5.66,0,0,0,1-2.21,14.93,14.93,0,0,0-.62-7.28Z" style="fill:#263238"></path><path d="M331.1,420.41l-.15,0a.51.51,0,0,1-.33-.63c2.95-9.33,12.93-24.07,27.2-24.07H358a28.63,28.63,0,0,1,18.72,7.63.5.5,0,1,1-.67.75A27.63,27.63,0,0,0,358,396.69c-13.82-.08-23.53,14.27-26.41,23.37A.49.49,0,0,1,331.1,420.41Z" style="fill:#263238"></path><path d="M381.23,409.58a.48.48,0,0,1-.42-.23,26.47,26.47,0,0,0-2.16-2.69.5.5,0,1,1,.74-.67,24.71,24.71,0,0,1,2.25,2.81.49.49,0,0,1-.14.69A.46.46,0,0,1,381.23,409.58Z" style="fill:#263238"></path><path d="M300.24,321.39a5.83,5.83,0,0,0-3.91-1.83c-2.7-.12-4.8.94-4.61,1.91s2.93,3.11,4,3.46S300,322.89,300.24,321.39Z" style="fill:#407BFF"></path><path d="M296,325.46a1.34,1.34,0,0,1-.4-.06c-1.14-.38-4.1-2.61-4.33-3.83a1.3,1.3,0,0,1,.35-1.12c.79-.92,2.7-1.48,4.77-1.39a6.33,6.33,0,0,1,4.27,2,.48.48,0,0,1,.11.41c-.19,1.15-1.64,2.55-3,3.35A3.91,3.91,0,0,1,296,325.46Zm0-5.41a5.28,5.28,0,0,0-3.59,1.05c-.05.06-.14.18-.12.28.13.65,2.59,2.72,3.67,3.07a2.3,2.3,0,0,0,1.36-.49,6.39,6.39,0,0,0,2.44-2.43,5.39,5.39,0,0,0-3.37-1.47Z" style="fill:#263238"></path><path d="M298.76,330a2.39,2.39,0,0,1-.84-.14,4.33,4.33,0,0,1-2.32-3c-.66,1.53-1.53,2.4-2.61,2.6-2.43.45-4.78-2.79-4.88-2.92a.5.5,0,1,1,.81-.59c.58.8,2.4,2.82,3.89,2.53,1-.19,1.85-1.46,2.43-3.68a.5.5,0,0,1,1,.09c.08.95.61,3.55,2,4,1.07.37,2.61-.48,4.46-2.45a.48.48,0,0,1,.7,0,.5.5,0,0,1,0,.71C301.66,329.06,300.09,330,298.76,330Z" style="fill:#263238"></path><path d="M310.75,315.47c.21,1.08-.95,2.23-2.61,2.56s-3.18-.27-3.4-1.35.95-2.23,2.61-2.56S310.53,314.39,310.75,315.47Z" style="fill:#263238"></path><path d="M309.46,315.21c.06.29-.26.61-.72.7s-.87-.07-.93-.37.26-.61.71-.71S309.4,314.91,309.46,315.21Z" style="fill:#fff"></path><path d="M286.57,316.47c-.39,1-2,1.39-3.57.8s-2.56-1.9-2.17-2.94,2-1.39,3.56-.8S287,315.44,286.57,316.47Z" style="fill:#263238"></path><path d="M285.46,315.51c-.11.28-.55.38-1,.22s-.7-.52-.59-.81.54-.38,1-.22S285.56,315.22,285.46,315.51Z" style="fill:#fff"></path><path d="M284.74,323.65h-.05l-8.65-.88a.5.5,0,1,1,.1-1l8.65.87a.5.5,0,0,1-.05,1Z" style="fill:#263238"></path><path d="M278,327.09a.51.51,0,0,1-.48-.36.5.5,0,0,1,.34-.62l6.67-2a.51.51,0,0,1,.63.33.49.49,0,0,1-.34.62l-6.67,2Z" style="fill:#263238"></path><path d="M281.59,329.08a.49.49,0,0,1-.44-.27.51.51,0,0,1,.21-.68l3.52-1.79a.5.5,0,0,1,.68.22.51.51,0,0,1-.22.67L281.82,329A.46.46,0,0,1,281.59,329.08Z" style="fill:#263238"></path><path d="M306.64,324.26a.5.5,0,0,1,0-1l8.68-.38a.46.46,0,0,1,.52.47.49.49,0,0,1-.47.52l-8.69.39Z" style="fill:#263238"></path><path d="M313.16,328.07l-.18,0-6.55-2.39a.5.5,0,0,1,.34-.94l6.56,2.39a.5.5,0,0,1-.17,1Z" style="fill:#263238"></path><path d="M309.48,329.86a.45.45,0,0,1-.25-.07l-3.42-2a.5.5,0,0,1-.18-.68.51.51,0,0,1,.69-.18l3.41,2a.5.5,0,0,1-.25.93Z" style="fill:#263238"></path></g></svg>
